# File created by Blade
# Date/Time:  Thu Sep 25 19:36:54 2014
# Frame Rate: 120.000 fps
#------------------------------------------------------
:FULLY-SPECIFIED
:DEGREES
253
root 1.361560 33.263447 2.839015 21.417885 -0.474464 -11.855781
Spine -19.369433 4.029104 18.456544
Head -2.450115 -1.133625 0.302866
LeftShoulder -11.918338 25.655120 11.424528
LeftArm 18.131231 5.380857 -59.487878
LeftForeArm 4.743407 0.000000 19.579920
LeftHand -22.644852 -0.000000 -10.652518
LeftHandThumb1 -26.253704 0.000000 33.147579
RightShoulder -20.673163 -1.242381 -22.765336
RightArm -29.308961 -25.295842 78.364347
RightForeArm -17.924496 -0.000000 10.797045
RightHand -6.057479 -0.000000 24.085051
RightHandThumb1 -24.326973 -0.000000 -32.862282
LeftUpLeg -17.799871 3.992241 3.387972
LeftLeg 5.213755 -0.000000 -0.000000
LeftFoot -12.979572 6.211802 -9.830524
LeftToeBase 7.967401 -0.000000 -0.000000
RightUpLeg -6.742287 11.958477 -29.005448
RightLeg 131.882574 -0.000000 -0.000000
RightFoot 20.759147 -2.725890 5.443988
RightToeBase 6.477723 -0.000000 -0.000000
254
root 1.370922 33.269952 2.849449 21.565520 -0.523443 -11.895493
Spine -19.515076 3.886991 18.641011
Head -2.421201 -0.850514 0.241823
LeftShoulder -11.872949 25.660094 11.422044
LeftArm 18.115819 5.479236 -59.546501
LeftForeArm 4.712587 -0.000000 19.665635
LeftHand -22.740175 -0.000000 -10.575033
LeftHandThumb1 -26.253704 0.000000 33.147579
RightShoulder -20.645460 -1.301023 -22.787074
RightArm -29.662701 -25.446484 78.600327
RightForeArm -17.494000 -0.000000 10.763936
RightHand -5.987341 -0.000000 24.568941
RightHandThumb1 -24.326973 -0.000000 -32.862282
LeftUpLeg -17.882498 4.204472 3.362153
LeftLeg 5.124507 -0.000000 -0.000000
LeftFoot -12.872031 5.992567 -9.964592
LeftToeBase 7.946108 -0.000000 -0.000000
RightUpLeg -6.660947 12.043441 -29.279279
RightLeg 132.150260 -0.000000 -0.000000
RightFoot 21.235791 -2.589865 5.849802
RightToeBase 6.326788 -0.000000 -0.000000
255
root 1.381856 33.276058 2.861119 21.691136 -0.552365 -11.924742
Spine -19.635824 3.728558 18.819009
Head -2.405411 -0.567007 0.205863
LeftShoulder -11.807102 25.659545 11.431705
LeftArm 18.115104 5.525814 -59.626697
LeftForeArm 4.793697 -0.000000 19.722767
LeftHand -22.625861 -0.000000 -10.532566
LeftHandThumb1 -26.253704 0.000000 33.147579
RightShoulder -20.620849 -1.327847 -22.820281
RightArm -30.042652 -25.585657 78.845265
RightForeArm -17.085221 -0.000000 10.772361
RightHand -5.786363 -0.000000 24.697779
RightHandThumb1 -24.326973 -0.000000 -32.862282
LeftUpLeg -17.943755 4.336026 3.344614
LeftLeg 5.035571 -0.000000 -0.000000
LeftFoot -12.786869 5.837152 -10.081757
LeftToeBase 7.988193 -0.000000 -0.000000
RightUpLeg -6.520056 11.929568 -29.506103
RightLeg 132.332305 -0.000000 -0.000000
RightFoot 21.634623 -2.681935 5.384884
RightToeBase 6.017357 -0.000000 -0.000000
256
root 1.390771 33.283489 2.870761 21.825132 -0.559753 -11.961044
Spine -19.753538 3.549613 19.014468
Head -2.434381 -0.313455 0.131484
LeftShoulder -11.779673 25.716434 11.405802
LeftArm 18.195433 5.560434 -59.668508
LeftForeArm 4.808020 0.000000 19.785027
LeftHand -22.599722 0.000000 -10.501046
LeftHandThumb1 -26.253704 0.000000 33.147579
RightShoulder -20.511731 -1.125916 -22.884629
RightArm -30.656020 -25.420824 79.033564
RightForeArm -16.844635 -0.000000 10.818357
RightHand -5.726872 -0.000000 25.168497
RightHandThumb1 -24.326973 -0.000000 -32.862282
LeftUpLeg -18.016954 4.506074 3.330127
LeftLeg 4.938434 -0.000000 -0.000000
LeftFoot -12.704109 5.622102 -10.230771
LeftToeBase 8.131517 -0.000000 -0.000000
RightUpLeg -6.397423 11.774800 -29.687181
RightLeg 132.485631 -0.000000 -0.000000
RightFoot 21.908689 -2.821751 4.985690
RightToeBase 6.058764 -0.000000 -0.000000
257
root 1.399784 33.287933 2.885522 21.918910 -0.554657 -11.970982
Spine -19.823488 3.345391 19.152278
Head -2.513196 -0.077220 0.147134
LeftShoulder -11.710752 25.680214 11.447554
LeftArm 18.189314 5.604666 -59.742970
LeftForeArm 4.861349 -0.000000 19.861539
LeftHand -22.496822 -0.000000 -10.408125
LeftHandThumb1 -26.253704 0.000000 33.147579
RightShoulder -20.467888 -1.031494 -22.918328
RightArm -31.142764 -25.444757 79.273564
RightForeArm -15.985554 -0.000000 10.823590
RightHand -5.810870 -0.000000 25.361197
RightHandThumb1 -24.326973 -0.000000 -32.862282
LeftUpLeg -18.041600 4.557016 3.323613
LeftLeg 4.844915 -0.000000 -0.000000
LeftFoot -12.641694 5.521751 -10.313312
LeftToeBase 8.214296 -0.000000 -0.000000
RightUpLeg -6.200977 11.619199 -29.863007
RightLeg 132.569843 -0.000000 -0.000000
RightFoot 22.118258 -2.943340 4.685981
RightToeBase 5.902324 -0.000000 -0.000000
258
root 1.405138 33.292975 2.899513 22.011486 -0.496763 -11.981193
Spine -19.905577 3.098393 19.288214
Head -2.581974 0.162489 0.188496
LeftShoulder -11.641155 25.625104 11.509495
LeftArm 18.200397 5.718276 -59.781007
LeftForeArm 4.843053 -0.000000 19.943483
LeftHand -22.603033 -0.000000 -10.373142
LeftHandThumb1 -26.253704 0.000000 33.147579
RightShoulder -20.434993 -1.088316 -22.956808
RightArm -31.335325 -25.207776 79.323236
RightForeArm -14.315037 -0.000000 10.646308
RightHand -6.135853 -0.000000 25.172282
RightHandThumb1 -24.326973 -0.000000 -32.862282
LeftUpLeg -18.079802 4.588133 3.334903
LeftLeg 4.760989 -0.000000 -0.000000
LeftFoot -12.570440 5.361830 -10.487076
LeftToeBase 8.275966 -0.000000 -0.000000
RightUpLeg -5.981717 11.371406 -29.978592
RightLeg 132.593416 -0.000000 -0.000000
RightFoot 22.213028 -3.063122 4.376494
RightToeBase 6.163281 -0.000000 -0.000000
